<svg width="1500" height="1500" viewBox="0 0 1500 1500" fill="none" xmlns="http://www.w3.org/2000/svg">
<circle cx="750" cy="750" r="750" fill="#0B2952"/>
<path d="M395 697V1103H231V393H359L690 810V393H854V1103H722L395 697Z" fill="#F0AB25"/>
<path d="M854 1103L690 393H955C1013.67 393 1065 402.333 1109 421C1153 439.667 1189.67 465 1219 497C1249 529 1271.33 566.667 1286 610C1301.33 652.667 1309 698.333 1309 747C1309 801 1300.67 850 1284 894C1267.33 937.333 1243.33 974.667 1212 1006C1181.33 1036.67 1144 1060.67 1100 1078C1056.67 1094.67 1008.33 1103 955 1103H854ZM1142 747C1142 715.667 1137.67 687.333 1129 662C1121 636 1109 613.667 1093 595C1077 576.333 1057.33 562 1034 552C1010.67 542 984.333 537 955 537H854V959H955C985 959 1011.67 953.667 1035 943C1058.33 932.333 1077.67 917.667 1093 899C1109 879.667 1121 857.333 1129 832C1137.67 806 1142 777.667 1142 747Z" fill="#F0AB25"/>
</svg>
